<svg xmlns="http://www.w3.org/2000/svg" viewBox="0 0 580 200" width="580" height="200" role="img">
<title>Paniery logo, for dark backgrounds</title>
<g transform="translate(10,20) scale(0.8)">
<path d="M72 55 Q56 40 68 20 Q86 36 72 55 Z" fill="#D85A30"/>
<path d="M70 42 Q69 33 66 26" stroke="#F0997B" stroke-width="2" fill="none" stroke-linecap="round"/>
<path d="M70 80 C70 30 130 30 130 80" stroke="#F3FBF6" stroke-width="8" fill="none" stroke-linecap="round"/>
<rect x="55" y="76" width="90" height="16" rx="8" fill="#DCEFE7"/>
<path d="M60 92 L140 92 L124 150 Q122 162 110 162 L90 162 Q78 162 76 150 Z" fill="#F3FBF6"/>
<path d="M68 114 L132 114" stroke="#0F6E56" stroke-width="3" stroke-linecap="round" opacity="0.55"/>
<path d="M72 136 L128 136" stroke="#0F6E56" stroke-width="3" stroke-linecap="round" opacity="0.55"/>
</g>
<text x="205" y="130" font-family="Poppins, Verdana, Arial, sans-serif" font-weight="600" font-size="78" letter-spacing="-1" fill="#F3FBF6">Paniery</text>
</svg>
